<?xml version="1.0" encoding="utf-8"?>
<!-- Generator: Adobe Illustrator 16.0.4, SVG Export Plug-In . SVG Version: 6.00 Build 0)  -->
<!DOCTYPE svg PUBLIC "-//W3C//DTD SVG 1.1//EN" "http://www.w3.org/Graphics/SVG/1.1/DTD/svg11.dtd">
<svg version="1.1" xmlns="http://www.w3.org/2000/svg" xmlns:xlink="http://www.w3.org/1999/xlink" x="0px" y="0px" width="500px"
	 height="500px" viewBox="0 0 500 500" enable-background="new 0 0 500 500" xml:space="preserve">
<g id="Layer_2" display="none">
</g>
<g id="Layer_1">
	<path d="M249.99,0c-138.071,0-250,111.929-250,250c0,138.07,111.929,249.999,250,249.999c138.07,0,250-111.929,250-249.999
		C499.99,111.929,388.061,0,249.99,0z M406.076,350.458h-312V186.429l142.217,82.135c4.033,2.331,9.066,3.496,14.012,3.496
		c4.943,0,10.103-1.165,14.135-3.498l141.637-81.778V350.458z M406.076,156.936l-154.37,89.169c-0.557,0.174-1.995,0.174-2.55,0
		L94.076,156.58v-7.122h312V156.936z"/>
</g>
</svg>
