<?xml version="1.0" encoding="utf-8"?>
<!-- Generator: Adobe Illustrator 16.0.4, SVG Export Plug-In . SVG Version: 6.00 Build 0)  -->
<!DOCTYPE svg PUBLIC "-//W3C//DTD SVG 1.1//EN" "http://www.w3.org/Graphics/SVG/1.1/DTD/svg11.dtd">
<svg version="1.1" id="Layer_1" xmlns="http://www.w3.org/2000/svg" xmlns:xlink="http://www.w3.org/1999/xlink" x="0px" y="0px"
	 width="200px" height="200px" viewBox="0 0 200 200" enable-background="new 0 0 200 200" xml:space="preserve">
<g id="Layer_2" display="none">
</g>
<g id="Layer_1_1_">
	<g>
		<g>
			<g>
				<path d="M100.093,33.71c-18.276,0-34.697,5.752-47.778,18.74c-12.988,12.988-18.74,29.408-18.74,47.777
					c0,18.277,5.752,34.697,18.833,47.686c12.988,12.987,29.409,18.739,47.686,18.739c9.462,0,21.616,0.095,30.058-3.711
					l8.77,22.801c0.79,2.054-0.322,4.113-2.473,4.578c0,0-22.254,4.814-36.354,4.814c-26.162,0-49.355-8.535-67.91-27.09
					C13.628,149.583,5,126.482,5,100.321c0-26.07,8.535-49.17,27.09-67.818C50.645,13.856,73.838,4.856,100,4.856
					c26.068,0,49.727,7.701,68.374,26.348C187.021,49.853,195,73.046,195,99.114c0,30.895-18.646,61.229-53.066,58.817
					c-12.709-0.928-23.379-8.07-28.389-23.008c-3.711,5.381-11.689,6.588-17.72,6.588c-11.133,0-18.926-3.99-26.812-11.875
					c-7.886-7.887-11.875-17.441-11.875-28.574c0-20.039,16.328-40.448,37.295-40.448c4.546,0,14.844,3.34,17.441,8.535V64.52
					c0-2.2,1.8-4,4-4h17.327c2.199,0,4.006,1.8,4.013,4l0.16,48.777c0.007,2.2,0.744,5.645,1.637,7.655
					c0,0,5.056,11.374,9.509,10.169c12.988-3.434,17.721-21.988,17.721-32.285c0-18.277-5.195-34.326-18.184-47.314
					c-12.99-12.988-44.375-17.437-44.375-17.437C101.504,33.777,99.889,33.607,100.093,33.71L100.093,33.71z M97.588,86.868
					c-7.793,0-14.194,6.494-14.194,14.286c0,7.979,6.309,14.287,14.287,14.287c7.885,0,14.102-4.358,14.287-14.192
					c0-9.371-10.415-12.978-10.415-12.978C99.475,87.551,97.689,86.92,97.588,86.868L97.588,86.868z"/>
				<path fill="none" stroke="#FFFFFF" stroke-linecap="round" stroke-linejoin="round" stroke-miterlimit="10" d="M100.093,33.71
					c-18.276,0-34.697,5.752-47.778,18.74c-12.988,12.988-18.74,29.408-18.74,47.777c0,18.277,5.752,34.697,18.833,47.686
					c12.988,12.987,29.409,18.739,47.686,18.739c9.462,0,21.616,0.095,30.058-3.711l8.77,22.801c0.79,2.054-0.322,4.113-2.473,4.578
					c0,0-22.254,4.814-36.354,4.814c-26.162,0-49.355-8.535-67.91-27.09C13.628,149.583,5,126.482,5,100.321
					c0-26.07,8.535-49.17,27.09-67.818C50.645,13.856,73.838,4.856,100,4.856c26.068,0,49.727,7.701,68.374,26.348
					C187.021,49.853,195,73.046,195,99.114c0,30.895-18.646,61.229-53.066,58.817c-12.709-0.928-23.379-8.07-28.389-23.008
					c-3.711,5.381-11.689,6.588-17.72,6.588c-11.133,0-18.926-3.99-26.812-11.875c-7.886-7.887-11.875-17.441-11.875-28.574
					c0-20.039,16.328-40.448,37.295-40.448c4.546,0,14.844,3.34,17.441,8.535V64.52c0-2.2,1.8-4,4-4h17.327
					c2.199,0,4.006,1.8,4.013,4l0.16,48.777c0.007,2.2,0.744,5.645,1.637,7.655c0,0,5.056,11.374,9.509,10.169
					c12.988-3.434,17.721-21.988,17.721-32.285c0-18.277-5.195-34.326-18.184-47.314c-12.99-12.988-44.375-17.437-44.375-17.437
					C101.504,33.777,99.889,33.607,100.093,33.71L100.093,33.71z M97.588,86.868c-7.793,0-14.194,6.494-14.194,14.286
					c0,7.979,6.309,14.287,14.287,14.287c7.885,0,14.102-4.358,14.287-14.192c0-9.371-10.415-12.978-10.415-12.978
					C99.475,87.551,97.689,86.92,97.588,86.868L97.588,86.868z"/>
			</g>
		</g>
	</g>
</g>
</svg>
