<?xml version="1.0" encoding="utf-8"?>
<!-- Generator: Adobe Illustrator 16.0.4, SVG Export Plug-In . SVG Version: 6.00 Build 0)  -->
<!DOCTYPE svg PUBLIC "-//W3C//DTD SVG 1.1//EN" "http://www.w3.org/Graphics/SVG/1.1/DTD/svg11.dtd">
<svg version="1.1" xmlns="http://www.w3.org/2000/svg" xmlns:xlink="http://www.w3.org/1999/xlink" x="0px" y="0px" width="500px"
	 height="500px" viewBox="0 0 500 500" enable-background="new 0 0 500 500" xml:space="preserve">
<g id="Layer_2" display="none">
</g>
<g id="Layer_1">
	<circle cx="249.761" cy="250.815" r="250"/>
	<path fill-rule="evenodd" clip-rule="evenodd" fill="#FFFFFF" d="M270.341,252.533c0,16.102-0.662,32.239,0.128,48.303
		c2.116,43.155-29.591,71.95-60.837,79.784c-24.289,6.088-47.808,3.934-69.385-9.223c-28.212-17.202-42.758-42.573-37.608-75.662
		c5.108-32.822,26.703-52.815,57.861-62.223c6.354-1.92,14.182-1.702,20.633,0.068c9.574,2.629,13.204,12.101,8.635,21.005
		c-2.638,5.143-6.91,9.707-11.262,13.622c-3.123,2.808-7.515,4.312-11.487,6.053c-16.097,7.046-25.258,19.805-24.444,34.301
		c0.789,14.067,11.892,26.609,27.951,31.781c10.185,3.28,20.318,3.295,30.514,0.144c18.759-5.797,28.537-18.88,28.604-38.939
		c0.115-34.39-0.003-68.783,0.045-103.173c0.051-37.494,19.657-65.646,55.205-77.128c30.505-9.854,59.494-5.715,84.848,14.628
		c21.55,17.289,32.004,40.331,27.685,67.889c-4.82,30.742-24.121,50.569-52.773,61.258c-6.445,2.405-13.83,3.624-20.685,3.303
		c-12.918-0.604-20.176-13.259-13.199-24.08c4.451-6.9,12.2-11.854,18.978-17.012c4.263-3.245,9.926-4.66,14.168-7.927
		c17.764-13.669,17.573-38.097-0.091-51.934c-15.407-12.069-38.362-13.453-55.379-3.089c-11.811,7.193-18.233,17.575-18.133,31.749
		C270.442,214.864,270.344,233.699,270.341,252.533z"/>
</g>
</svg>
