<?xml version="1.0" encoding="utf-8"?>
<!-- Generator: Adobe Illustrator 16.0.4, SVG Export Plug-In . SVG Version: 6.00 Build 0)  -->
<!DOCTYPE svg PUBLIC "-//W3C//DTD SVG 1.1//EN" "http://www.w3.org/Graphics/SVG/1.1/DTD/svg11.dtd">
<svg version="1.1" xmlns="http://www.w3.org/2000/svg" xmlns:xlink="http://www.w3.org/1999/xlink" x="0px" y="0px" width="500px"
	 height="500px" viewBox="0 0 500 500" enable-background="new 0 0 500 500" xml:space="preserve">
<g id="Layer_2" display="none">
</g>
<g id="Layer_1">
	<circle cx="249.917" cy="249.845" r="250"/>
	<g>
		<path fill-rule="evenodd" clip-rule="evenodd" fill="#FFFFFF" d="M266.552,185.186c-14.373-6.576-28.512-6.958-43.555-1.237
			c1.102-1.25,1.583-1.858,2.127-2.404c19.516-19.525,38.894-39.191,58.59-58.532c33.837-33.227,89.947-22.164,107.333,21.473
			c10.271,25.782,6.103,50.093-13.022,70.31c-22.245,23.514-45.363,46.227-68.607,68.766c-26.185,25.39-68.173,23.911-93.259-2.484
			c-4.87-5.125-7.604-10.561-5.509-17.606c3.346-11.255,17.521-15.041,25.839-6.746c6.142,6.126,12.704,11.332,21.49,12.845
			c12.146,2.093,22.526-1.464,31.205-10.128c12.034-12.014,24.056-24.045,36.078-36.072c9.964-9.968,20.085-19.786,29.836-29.959
			c9.313-9.718,12.089-21.417,8.01-34.224c-4.079-12.802-13.123-20.771-26.311-23.335c-12.2-2.372-22.735,1.374-31.508,10.182
			c-12.002,12.05-24.05,24.054-36.063,36.09C268.325,183.026,267.54,184.048,266.552,185.186z"/>
		<path fill-rule="evenodd" clip-rule="evenodd" fill="#FFFFFF" d="M276.545,316.368c-0.833,0.964-1.247,1.509-1.728,1.989
			c-19.771,19.772-39.378,39.71-59.362,59.265c-32.432,31.736-86.551,21.73-105.712-19.341
			c-11.408-24.454-7.032-53.647,11.817-72.983c22.687-23.272,45.601-46.343,68.964-68.934c26.067-25.205,67.943-23.594,93.009,2.696
			c5.11,5.36,7.74,11.075,5.3,18.286c-3.653,10.792-17.463,14.113-25.656,6.093c-5.393-5.281-10.936-10.203-18.429-12.127
			c-13.03-3.348-24.442-0.264-34.008,9.19c-10.856,10.728-21.604,21.562-32.391,32.36c-11.362,11.374-22.962,22.522-34.015,34.191
			c-17.551,18.529-9.761,48.539,14.582,56.229c13.231,4.18,25.114,1.017,35.011-8.755c12.436-12.277,24.783-24.645,37.041-37.101
			c1.864-1.895,3.222-2.06,5.636-1.067c12.11,4.979,24.427,5.276,36.823,0.942C274.275,317.009,275.147,316.785,276.545,316.368z"/>
	</g>
</g>
</svg>
