<?xml version="1.0" encoding="utf-8"?>
<!-- Generator: Adobe Illustrator 16.0.4, SVG Export Plug-In . SVG Version: 6.00 Build 0)  -->
<!DOCTYPE svg PUBLIC "-//W3C//DTD SVG 1.1//EN" "http://www.w3.org/Graphics/SVG/1.1/DTD/svg11.dtd">
<svg version="1.1" xmlns="http://www.w3.org/2000/svg" xmlns:xlink="http://www.w3.org/1999/xlink" x="0px" y="0px" width="500px"
	 height="500px" viewBox="0 0 500 500" enable-background="new 0 0 500 500" xml:space="preserve">
<g id="Layer_2" display="none">
</g>
<g id="Layer_1">
	<circle cx="249.917" cy="249.845" r="250"/>
	<path fill="#FFFFFF" stroke="#000000" stroke-miterlimit="10" d="M228.157,243.914c0,24.736-0.075,48.215,0.162,71.689
		c0.018,1.627,2.08,3.584,3.651,4.788c14.856,11.389,20.481,29.888,14.193,47.215c-6.38,17.58-22.82,28.041-42.308,26.921
		c-17.277-0.994-32.367-13.966-36.681-31.533c-3.939-16.04,2.136-32.583,16.033-42.735c2.528-1.846,3.477-3.66,3.471-6.72
		c-0.089-42.246-0.102-84.493,0.019-126.738c0.01-3.334-1.128-5.192-3.749-7.145c-19.104-14.226-22.505-40.929-7.696-58.993
		c15.064-18.379,42.403-20.483,59.866-4.609c17.451,15.862,18.104,42.482,1.63,59.611c-1.305,1.355-2.65,4.431-1.999,5.65
		c13.073,24.533,29.114,46.354,55.458,58.299c13.18,5.977,27.07,9.059,41.434,10.371c3.641,0.332,5.878-0.674,8.18-3.756
		c11.183-14.981,29.409-20.5,46.568-14.548c16.628,5.768,27.699,21.492,27.613,39.221c-0.088,17.995-11.423,33.557-28.488,39.111
		c-16.819,5.474-34.578-0.284-45.802-14.481c-1.581-2.001-4.494-4.088-6.854-4.163c-39.993-1.279-73.538-16.933-101.713-44.881
		C230.526,245.873,229.822,245.342,228.157,243.914z M207.598,126.997c-10.967-0.09-19.988,8.73-20.075,19.626
		c-0.088,10.761,9.073,20.001,19.833,20.009c10.756,0.01,19.914-9.214,19.848-19.989
		C227.138,135.901,218.339,127.084,207.598,126.997z M373.396,291.554c11.004,0.171,20.038-8.506,20.247-19.445
		c0.204-10.747-8.858-20.064-19.64-20.185c-10.75-0.119-19.963,8.98-20.039,19.797C353.89,282.393,362.704,291.387,373.396,291.554z
		 M207.062,373.124c10.987,0.126,20.012-8.638,20.141-19.557c0.127-10.772-8.98-20.028-19.751-20.077
		c-10.766-0.047-19.937,9.111-19.93,19.907C187.527,364.093,196.354,373.002,207.062,373.124z"/>
</g>
</svg>
