<?xml version="1.0" encoding="utf-8"?>
<!-- Generator: Adobe Illustrator 16.0.4, SVG Export Plug-In . SVG Version: 6.00 Build 0)  -->
<!DOCTYPE svg PUBLIC "-//W3C//DTD SVG 1.1//EN" "http://www.w3.org/Graphics/SVG/1.1/DTD/svg11.dtd">
<svg version="1.1" xmlns="http://www.w3.org/2000/svg" xmlns:xlink="http://www.w3.org/1999/xlink" x="0px" y="0px" width="500px"
	 height="500px" viewBox="0 0 500 500" enable-background="new 0 0 500 500" xml:space="preserve">
<g id="Layer_2" display="none">
	<g id="gQeM01_1_" display="inline">
		
			<image overflow="visible" width="560" height="560" id="gQeM01_2_" xlink:href="CC7E43AF40836F65.png"  transform="matrix(1 0 0 1 271.3564 -17.542)">
		</image>
	</g>
</g>
<g id="Layer_1">
	<path d="M250.271,0c-138.072,0-250,111.929-250,250c0,138.071,111.929,249.999,250,249.999c138.07,0,250-111.928,250-249.999
		C500.271,111.929,388.341,0,250.271,0z M176.356,378.458c-19,0-38,0-57,0c0-58,0-115,0-173c19,0,38,0,57,0
		C176.356,263.458,176.356,320.458,176.356,378.458z M179.317,159.569c-3.47,13.36-15.712,21.792-31.679,21.824
		c-23.018,0.044-37.799-19.575-30.373-40.313c5.557-15.513,24.088-23.394,42.112-17.907
		C174.916,127.903,183.48,143.538,179.317,159.569z M384.559,374.071c0,1.28-0.181,2.387-0.321,4.387c-19.148,0-37.881,0-56.881,0
		c0-2,0-4.359,0-6.496c0-27.969-0.037-55.938-0.311-83.904c-0.067-6.967-0.752-14.165-2.609-20.835
		c-5.559-19.972-28.223-27.253-44.819-14.682c-8.96,6.788-13.364,15.958-13.336,27.341c0.073,30.748,0.075,61.494,0.075,92.24
		c0,2.001,0,4.336,0,6.336c-19,0-38,0-57,0c0-57,0-115,0-173c18,0,37,0,57,0c0,7,0,14.901,0,23.104c1-1.018,1.564-1.272,1.843-1.667
		c16.733-23.845,40.039-29.663,67.048-23.764c26.8,5.854,40.923,24.386,46.521,50.098c1.797,8.254,2.583,16.838,2.667,25.299
		C384.749,310.382,384.563,342.214,384.559,374.071z"/>
</g>
</svg>
