<?xml version="1.0" encoding="utf-8"?>
<!-- Generator: Adobe Illustrator 16.0.4, SVG Export Plug-In . SVG Version: 6.00 Build 0)  -->
<!DOCTYPE svg PUBLIC "-//W3C//DTD SVG 1.1//EN" "http://www.w3.org/Graphics/SVG/1.1/DTD/svg11.dtd">
<svg version="1.1" xmlns="http://www.w3.org/2000/svg" xmlns:xlink="http://www.w3.org/1999/xlink" x="0px" y="0px" width="500px"
	 height="500px" viewBox="0 0 500 500" enable-background="new 0 0 500 500" xml:space="preserve">
<g id="Layer_2" display="none">
	<g id="gQeM01_1_" display="inline">
		
			<image overflow="visible" width="560" height="560" id="gQeM01_2_" xlink:href="CC86AEBBFA91C3AC.png"  transform="matrix(1 0 0 1 -371.0703 -17.542)">
		</image>
	</g>
</g>
<g id="Layer_1">
	<g>
		<path d="M500,250C500,111.929,388.07,0,250,0S0,111.929,0,250C0,377.729,95.796,483.073,219.458,498.14
			c-0.369-1.758-0.59-3.248-0.593-3.936c-0.005-0.898,0.015-1.801,0.015-2.701c-0.002-13.098,0.05-26.193,0.05-39.291
			c0-0.695,0-1.389,0-2.176c-3,0.303-5.7,0.537-8.38,0.855c-8.247,0.979-16.509,1.561-24.815,0.572
			c-20.287-2.414-36.015-12.152-47.069-29.301c-7.643-11.855-15.202-23.768-22.63-35.756c-3.11-5.02-6.95-9.301-11.336-13.193
			c-2.541-2.256-4.86-4.768-7.72-7.602c2.494-0.842,4.459-1.922,6.51-2.127c7.943-0.801,15.556,0.635,22.612,4.408
			c7.574,4.049,12.903,10.41,17.644,17.402c3.127,4.613,6.238,9.307,9.92,13.463c9.033,10.199,20.267,16.584,33.998,18.088
			c9.603,1.051,18.883-0.732,28.067-3.305c2.321-0.65,3.203-2.299,3.441-4.514c1.222-11.338,3.852-22.223,10.263-31.893
			c0.237-0.357,0.318-0.816,0.397-1.029c-8.433-1.971-16.796-3.633-24.992-5.902c-18.69-5.176-35.272-14.061-48.494-28.594
			c-8.901-9.787-15.477-20.889-19.297-33.582c-2.776-9.223-3.638-18.688-3.752-28.283c-0.201-17.02,0.112-33.98,3.627-50.74
			c2.663-12.693,7.51-24.284,16.539-33.82c2.544-2.686,3.188-5.525,2.017-9.048c-5.979-17.964-4.85-35.82,1.078-53.557
			c0.865-2.59,2.038-3.143,4.685-2.437c7.917,2.115,15.147,5.642,21.729,10.527c6.325,4.696,11.435,10.603,16.58,16.479
			c2.519,2.878,4.996,5.792,7.481,8.678c0.367-0.192,0.595-0.281,0.786-0.417c7.753-5.462,16.519-8.246,25.811-9.262
			c8.41-0.92,16.865-1.515,25.314-1.962c14.606-0.774,29.171-0.333,43.648,2.048c8.416,1.383,16.33,4.311,24.2,7.419
			c1.119,0.442,1.889,0.468,2.85-0.461c6.564-6.345,13.296-12.522,19.788-18.941c6.926-6.85,15.135-11.305,24.439-13.901
			c3.752-1.048,5.333-0.22,6.592,3.455c6.093,17.785,7.048,35.567-0.046,53.343c-1.141,2.856-0.691,5.196,1.646,7.466
			c9.758,9.479,15.562,21.108,17.621,34.485c1.039,6.751,1.434,13.606,1.972,20.427c1.149,14.618,2.082,29.251,0.612,43.901
			c-1.145,11.418-4.36,22.227-10.006,32.252c-9.562,16.988-23.936,28.748-41.102,37.332c-13.218,6.607-27.325,10.359-41.938,12.322
			c-0.992,0.133-1.945,0.566-2.844,0.838c1.71,3.252,3.379,6.104,4.748,9.094c4.698,10.26,5.978,21.215,6.035,32.322
			c0.112,22.35,0.034,44.697,0.032,67.045c0,2.074-0.007,4.148-0.011,6.223C422.622,461.507,500,364.796,500,250z"/>
	</g>
</g>
</svg>
